<svg xmlns="http://www.w3.org/2000/svg" width="30" height="30" viewBox="0 0 30 30">
    <path fill="#FF6617" fill-rule="nonzero" d="M29.5 14.5a.5.5 0 1 1 0 1h-14v14a.5.5 0 1 1-1 0v-14H.5a.5.5 0 1 1 0-1h14V.5a.5.5 0 1 1 1 0v14h14zm-3.38 2.724c.41 0 .742.332.742.741v8.156c0 .409-.331.741-.741.741h-8.156a.741.741 0 0 1-.74-.741v-8.156c0-.409.33-.74.74-.74h8.156zm-14.085 0c.41 0 .74.332.74.741v8.156c0 .409-.33.741-.74.741H3.879a.741.741 0 0 1-.741-.741v-8.156c0-.409.331-.74.741-.74h8.156zm0-14.086c.41 0 .74.332.74.741v8.156c0 .409-.33.74-.74.74H3.879a.741.741 0 0 1-.741-.74V3.879c0-.409.331-.741.741-.741h8.156zm14.086 0c.41 0 .741.332.741.741v8.156c0 .409-.331.74-.741.74h-8.156a.741.741 0 0 1-.74-.74V3.879c0-.409.33-.741.74-.741h8.156z"/>
</svg>
