<svg width="34" height="22" viewBox="0 0 34 22" xmlns="http://www.w3.org/2000/svg"><title>Car</title><path d="M33.467 14.635v-4.531c0-.998-.471-2.452-2.646-3.848 0 0-2.872-6.256-7.983-6.256H11.163C6.052 0 3.18 6.256 3.18 6.256 1.005 7.652.534 9.106.534 10.104v4.53A.566.566 0 0 0 0 15.2v2.884c0 .246.16.45.38.526v2.641c0 .313.252.566.564.566h3.889a.565.565 0 0 0 .564-.566v-2.613a31.935 31.935 0 0 1 4.794-1.175h13.62a31.95 31.95 0 0 1 4.794 1.175v2.613c0 .313.252.566.564.566h3.89c.31 0 .562-.253.562-.566v-2.64a.557.557 0 0 0 .379-.527V15.2a.565.565 0 0 0-.533-.564zm-2.65.144c0 .63-.513 1.142-1.143 1.142h-4.177c-.63 0-1.143-.512-1.143-1.142 0-.242.15-.456.378-.539l4.748-1.712.194-.035c.63 0 1.142.513 1.142 1.142v1.144zM6.151 7.417C7.292 5.43 9.25 2.89 11.82 2.89h10.362c2.568 0 4.527 2.54 5.666 4.527H6.152zm14.76 8.204a.438.438 0 0 1-.437.437h-6.948a.437.437 0 0 1-.437-.437V14.6c0-.243.195-.438.437-.438h6.948c.242 0 .437.195.437.438v1.02zm-12.407.3H4.327c-.63 0-1.142-.512-1.142-1.141v-1.142c0-.63.513-1.143 1.142-1.143l.194.034 4.749 1.714a.57.57 0 0 1 .377.537c0 .629-.512 1.141-1.142 1.141z" fill="#F00" fill-rule="evenodd"/></svg>