<svg width="26" height="32" viewBox="0 0 26 32" xmlns="http://www.w3.org/2000/svg"><title>Dress</title><path d="M25.324 31.096c-.147-.337-.682-1.827-1.247-3.405-.69-1.923-1.472-4.104-1.858-5.05-.35-.86-1.417-2.902-2.546-5.065-1.167-2.234-2.374-4.545-2.667-5.324-.029-.081-.237-.927 1.33-5.71.827-2.527 1.737-4.891 1.746-4.915l.247-.643-3.052-.983-.527 3.869-3.886 1.816-3.873-1.87L8.486 0 5.433.983l.244.642c.01.023.908 2.385 1.725 4.911 1.55 4.79 1.34 5.635 1.311 5.715-.292.779-1.496 3.084-2.66 5.313-1.132 2.17-2.202 4.218-2.553 5.08-.383.942-1.162 3.112-1.85 5.027-.569 1.587-1.106 3.086-1.255 3.425L0 32h25.72l-.396-.904z" fill="#A550A9" fill-rule="evenodd"/></svg>