<svg width="32" height="32" viewBox="0 0 32 32" xmlns="http://www.w3.org/2000/svg"><title>Guitar</title><path d="M9.912 27.889a.79.79 0 0 1-1.115 0l-4.706-4.706a.788.788 0 1 1 1.114-1.115l4.706 4.707a.787.787 0 0 1 .001 1.114zm4.483-7.782c0 .673-.262 1.307-.74 1.783-.475.477-1.109.74-1.782.74a2.505 2.505 0 0 1-1.784-.74 2.506 2.506 0 0 1-.738-1.783c0-.673.262-1.307.738-1.783a2.505 2.505 0 0 1 1.784-.739c.673 0 1.307.262 1.783.738.477.477.739 1.11.739 1.784zM31.75 2.428L29.552.23a.79.79 0 0 0-1.06-.05l-3.62 2.99a.786.786 0 0 0-.055 1.164l.152.153-8.784 8.784-1.054-1.054a3.258 3.258 0 0 0-2.321-.962c-.806 0-1.574.297-2.166.835l-.204.194c-.416.416-.766.89-1.042 1.407a2.14 2.14 0 0 1-1.78 1.143c-2.108.12-4.048 1.017-5.464 2.527-3.05 3.249-2.835 8.606.481 11.942 1.706 1.718 4.036 2.703 6.392 2.703 2.205 0 4.256-.838 5.777-2.358a8.108 8.108 0 0 0 2.342-5.29c.043-.763.45-1.416 1.086-1.747a5.92 5.92 0 0 0 1.622-1.235l.02-.023a3.25 3.25 0 0 0-.11-4.505l-1.055-1.053 8.784-8.785.151.153c.149.148.35.23.558.23h.038a.79.79 0 0 0 .57-.286l2.99-3.62a.788.788 0 0 0-.05-1.059z" fill="#11AD91" fill-rule="evenodd"/></svg>