<svg width="29" height="30" viewBox="0 0 29 30" xmlns="http://www.w3.org/2000/svg"><title>Real estate</title><path d="M6.755 24.395h5.272v-4.888H6.755v4.888zm-4.003-6.512v11.589c0 .291.236.528.527.528h12.439V19.506h5.842V30h3.477a.528.528 0 0 0 .527-.528V17.883l-11.4-11.351L2.753 17.883zm25.123-4.167L14.158 0l-6.47 6.47V3.623a1.206 1.206 0 0 0-2.41 0V8.88L.442 13.716a1.505 1.505 0 0 0 1.065 2.571c.385 0 .77-.147 1.065-.44L14.159 4.262l11.586 11.585a1.503 1.503 0 0 0 2.129 0c.588-.59.588-1.543 0-2.131z" fill="#9D4C32" fill-rule="evenodd"/></svg>