<svg width="27" height="30" viewBox="0 0 27 30" xmlns="http://www.w3.org/2000/svg"><title>Washing machine</title><path d="M8.57 12.839a6.726 6.726 0 0 1 4.787-1.983c1.808 0 3.509.705 4.787 1.983a6.778 6.778 0 0 1 0 9.575 6.726 6.726 0 0 1-4.787 1.983 6.726 6.726 0 0 1-4.787-1.983 6.778 6.778 0 0 1 0-9.575zM0 27.379c0 .913.74 1.653 1.653 1.653h23.409c.912 0 1.653-.74 1.653-1.653V8.051H0v19.328zM25.062 0H1.652C.74 0 0 .74 0 1.653V5.61h26.715V1.653c0-.914-.74-1.653-1.653-1.653zm-1.784 4.392a1.342 1.342 0 1 1 .002-2.685 1.342 1.342 0 0 1-.002 2.685zm-4.147-.244a1.098 1.098 0 1 1 0-2.197 1.098 1.098 0 0 1 0 2.197zM16.42 14.565a4.301 4.301 0 0 0-3.062-1.27 4.303 4.303 0 0 0-3.062 1.27 4.334 4.334 0 0 0 0 6.123l6.124-6.123z" fill="#74b943" fill-rule="evenodd"/></svg>