<svg xmlns="http://www.w3.org/2000/svg" width="28" height="30" viewBox="0 0 28 30"><path fill="#EA579F" d="M28 11.96c0-2.79-.918-5.515-2.663-7.677A12.31 12.31 0 0 0 18.533.02a.793.793 0 0 0-.94.553L14.17 11.96H4.547V9.14c0-.444-.277-.805-.722-.805H.805a.805.805 0 0 0 0 1.61h2.132v6.717c0 1.46 1.267 2.645 2.728 2.645h7.048l1.157 1.157-2.38 2.38a3.777 3.777 0 0 0-2.017-.58 3.805 3.805 0 0 0-3.8 3.8c0 2.096 1.704 3.8 3.8 3.8a3.806 3.806 0 0 0 3.693-2.907h3.685a3.806 3.806 0 0 0 3.695 2.907c2.095 0 3.8-1.704 3.8-3.8 0-2.095-1.705-3.8-3.8-3.8-.74 0-1.432.213-2.017.58l-2.38-2.38 1.157-1.157h8.133c1.46 0 2.562-1.184 2.562-2.645v-4.7zm-12.97 7.347l-.02.02-.02-.02h.04zm-5.557 8.947a2.192 2.192 0 0 1-2.19-2.19c0-1.207.982-2.19 2.19-2.19 1.207 0 2.19.983 2.19 2.19 0 1.208-.983 2.19-2.19 2.19zm11.072 0a2.192 2.192 0 0 1-2.19-2.19c0-1.207.982-2.19 2.19-2.19 1.207 0 2.19.983 2.19 2.19 0 1.208-.983 2.19-2.19 2.19zm-3.17-4.284a3.78 3.78 0 0 0-.562 1.376h-3.61c-.095-.5-.29-.966-.56-1.376l2.366-2.367 2.366 2.367z"/></svg>
