<svg width="20" height="35" viewBox="0 0 20 35" xmlns="http://www.w3.org/2000/svg"><title>Electronics</title><path d="M1.897 26.734h15.897V4.274H1.897v22.46zm7.95 5.536a1.615 1.615 0 1 1-.001-3.23 1.615 1.615 0 0 1 0 3.23zM6.235 1.538h7.222c.183 0 .331.272.331.61 0 .337-.148.61-.331.61H6.235c-.183 0-.329-.273-.329-.61 0-.338.146-.61.33-.61zM17.16 0H2.53A2.532 2.532 0 0 0 0 2.534v29.705a2.53 2.53 0 0 0 2.531 2.53H17.16a2.53 2.53 0 0 0 2.53-2.53V2.534A2.532 2.532 0 0 0 17.16 0z" fill="#3F9CFF" fill-rule="evenodd"/></svg>