<svg xmlns="http://www.w3.org/2000/svg" width="30" height="29" viewBox="0 0 30 29">
    <path fill="#788B9E" fill-rule="nonzero" d="M19.726 13.301l-3.048-2.999c.433-.63.617-1.375.534-2.103L25.41 0 30 4.59l-8.197 8.2a3.117 3.117 0 0 0-2.077.511zm-14.3 9.986l5.205-5.207 1.296 1.278-5.214 5.214.298.302-1.255 1.55-4.128 2.617-.67-.67 2.617-4.125L5.13 22.99l.297.297zm7.13-14.457L27.586 23.84A3.023 3.023 0 0 1 25.449 29a3.018 3.018 0 0 1-2.135-.887L8.41 13.208l-.02-.02a6.405 6.405 0 0 1-6.517-1.556 6.39 6.39 0 0 1-1.65-6.197l3.621 3.62 3.553-.95.95-3.548L4.724.935a6.397 6.397 0 0 1 6.2 1.646 6.398 6.398 0 0 1 1.633 6.249zM25.71 27.606a1.153 1.153 0 1 0 .005-2.306 1.153 1.153 0 0 0-.005 2.306z"/>
</svg>
