<svg xmlns="http://www.w3.org/2000/svg" width="28" height="28" viewBox="0 0 28 28">
    <path fill="#00BCD4" fill-rule="nonzero" d="M0 11.375a3.494 3.494 0 0 0 2.625 3.377V26.25H.875a.876.876 0 0 0 0 1.75h26.25a.873.873 0 0 0 .875-.875.873.873 0 0 0-.875-.875h-1.75V14.752A3.494 3.494 0 0 0 28 11.375V10.5H0v.875zm17.5 3.5a3.5 3.5 0 0 0 3.5-3.5 3.494 3.494 0 0 0 2.625 3.377V26.25H10.5V14.875a3.5 3.5 0 0 0 3.5-3.5c0 1.933 1.569 3.5 3.5 3.5zm-7.875-.123V26.25h-5.25V14.752A3.493 3.493 0 0 0 7 11.375a3.494 3.494 0 0 0 2.625 3.377zM24.5 2.625h-21l-3.5 7h28l-3.5-7zM10.893 4.57l-1.75 3.5a.441.441 0 0 1-.588.196.436.436 0 0 1-.195-.586l1.75-3.5a.44.44 0 0 1 .586-.196c.218.107.303.37.197.586zm3.544 3.305a.437.437 0 1 1-.875 0v-3.5a.437.437 0 1 1 .876 0v3.5zm5.025.383a.435.435 0 0 1-.595-.173l-1.914-3.5a.437.437 0 1 1 .77-.42l1.913 3.5a.44.44 0 0 1-.174.593zM7.438 21.133v-2.016A.865.865 0 0 1 7 18.375a.876.876 0 0 1 1.75 0c0 .321-.18.588-.438.742v2.016c.259.154.438.42.438.742a.876.876 0 0 1-1.75 0c0-.321.181-.588.438-.742zM3.5.875C3.5.391 3.893 0 4.375 0h19.25c.485 0 .875.391.875.875s-.39.875-.875.875H4.375A.876.876 0 0 1 3.5.875zm11.836 18.684l-.618-.618 2.474-2.475.62.619-2.476 2.474zm0 2.475l-.618-.619 4.949-4.949.619.619-4.95 4.949zm4.331-3.093l.619.618-2.475 2.475-.619-.619 2.475-2.474z"/>
</svg>
