<svg width="30" height="25" viewBox="0 0 30 25" xmlns="http://www.w3.org/2000/svg"><title>Brief Case</title><path d="M18.145 17.108c0 .28-.102.524-.308.73a.996.996 0 0 1-.728.307h-5.184a.997.997 0 0 1-.73-.308.998.998 0 0 1-.308-.73v-2.59H0v7.776c0 .712.254 1.322.762 1.83a2.494 2.494 0 0 0 1.83.762h23.849c.712 0 1.323-.254 1.83-.762a2.495 2.495 0 0 0 .761-1.83v-7.777H18.145v2.592zm-5.703-.518h4.148v-2.074h-4.148v2.074zM28.271 4.908a2.497 2.497 0 0 0-1.83-.761h-5.703V1.555c0-.432-.152-.8-.454-1.102A1.5 1.5 0 0 0 19.183 0H9.85c-.433 0-.8.151-1.103.453-.302.303-.453.67-.453 1.102v2.592H2.593c-.714 0-1.324.254-1.831.761A2.495 2.495 0 0 0 0 6.74v6.222h29.032V6.739c0-.713-.253-1.323-.761-1.83zm-17.903-.761h8.296V2.074h-8.296v2.073z" fill="#F9CA25" fill-rule="evenodd"/></svg>